<mxfile host="app.diagrams.net" modified="2021-06-17T19:42:44.842Z" agent="5.0 (Windows NT 10.0; Win64; x64) AppleWebKit/537.36 (KHTML, like Gecko) Chrome/91.0.4472.77 Safari/537.36 Edg/91.0.864.41" etag="S-rQ-baiBJ_YPNBCDO6p" version="14.7.10" type="github">
  <diagram id="k0CBG_LT2ejW3VixiRD7" name="Page-1">
    <mxGraphModel dx="480" dy="577" grid="1" gridSize="10" guides="1" tooltips="1" connect="1" arrows="1" fold="1" page="1" pageScale="1" pageWidth="850" pageHeight="1100" math="0" shadow="0">
      <root>
        <mxCell id="0" />
        <mxCell id="1" parent="0" />
        <mxCell id="Ovz-r9pCA3V5yrxFts6w-2" value="DEPARTMENT" style="shape=table;startSize=30;container=1;collapsible=1;childLayout=tableLayout;fixedRows=1;rowLines=0;fontStyle=1;align=center;resizeLast=1;fillColor=#e3c800;strokeColor=#B09500;fontColor=#000000;" vertex="1" parent="1">
          <mxGeometry x="335" y="345" width="180" height="150" as="geometry" />
        </mxCell>
        <mxCell id="Ovz-r9pCA3V5yrxFts6w-3" value="" style="shape=partialRectangle;collapsible=0;dropTarget=0;pointerEvents=0;fillColor=none;top=0;left=0;bottom=1;right=0;points=[[0,0.5],[1,0.5]];portConstraint=eastwest;" vertex="1" parent="Ovz-r9pCA3V5yrxFts6w-2">
          <mxGeometry y="30" width="180" height="30" as="geometry" />
        </mxCell>
        <mxCell id="Ovz-r9pCA3V5yrxFts6w-4" value="PK" style="shape=partialRectangle;connectable=0;fillColor=none;top=0;left=0;bottom=0;right=0;fontStyle=1;overflow=hidden;" vertex="1" parent="Ovz-r9pCA3V5yrxFts6w-3">
          <mxGeometry width="30" height="30" as="geometry" />
        </mxCell>
        <mxCell id="Ovz-r9pCA3V5yrxFts6w-5" value="DeptID" style="shape=partialRectangle;connectable=0;fillColor=none;top=0;left=0;bottom=0;right=0;align=left;spacingLeft=6;fontStyle=5;overflow=hidden;" vertex="1" parent="Ovz-r9pCA3V5yrxFts6w-3">
          <mxGeometry x="30" width="150" height="30" as="geometry" />
        </mxCell>
        <mxCell id="Ovz-r9pCA3V5yrxFts6w-6" value="" style="shape=partialRectangle;collapsible=0;dropTarget=0;pointerEvents=0;fillColor=none;top=0;left=0;bottom=0;right=0;points=[[0,0.5],[1,0.5]];portConstraint=eastwest;" vertex="1" parent="Ovz-r9pCA3V5yrxFts6w-2">
          <mxGeometry y="60" width="180" height="30" as="geometry" />
        </mxCell>
        <mxCell id="Ovz-r9pCA3V5yrxFts6w-7" value="" style="shape=partialRectangle;connectable=0;fillColor=none;top=0;left=0;bottom=0;right=0;editable=1;overflow=hidden;" vertex="1" parent="Ovz-r9pCA3V5yrxFts6w-6">
          <mxGeometry width="30" height="30" as="geometry" />
        </mxCell>
        <mxCell id="Ovz-r9pCA3V5yrxFts6w-8" value="DeptName" style="shape=partialRectangle;connectable=0;fillColor=none;top=0;left=0;bottom=0;right=0;align=left;spacingLeft=6;overflow=hidden;" vertex="1" parent="Ovz-r9pCA3V5yrxFts6w-6">
          <mxGeometry x="30" width="150" height="30" as="geometry" />
        </mxCell>
        <mxCell id="Ovz-r9pCA3V5yrxFts6w-98" value="" style="shape=partialRectangle;collapsible=0;dropTarget=0;pointerEvents=0;fillColor=none;top=0;left=0;bottom=0;right=0;points=[[0,0.5],[1,0.5]];portConstraint=eastwest;" vertex="1" parent="Ovz-r9pCA3V5yrxFts6w-2">
          <mxGeometry y="90" width="180" height="30" as="geometry" />
        </mxCell>
        <mxCell id="Ovz-r9pCA3V5yrxFts6w-99" value="FK" style="shape=partialRectangle;connectable=0;fillColor=none;top=0;left=0;bottom=0;right=0;fontStyle=0;overflow=hidden;" vertex="1" parent="Ovz-r9pCA3V5yrxFts6w-98">
          <mxGeometry width="30" height="30" as="geometry" />
        </mxCell>
        <mxCell id="Ovz-r9pCA3V5yrxFts6w-100" value="MgrID" style="shape=partialRectangle;connectable=0;fillColor=none;top=0;left=0;bottom=0;right=0;align=left;spacingLeft=6;fontStyle=0;overflow=hidden;" vertex="1" parent="Ovz-r9pCA3V5yrxFts6w-98">
          <mxGeometry x="30" width="150" height="30" as="geometry" />
        </mxCell>
        <mxCell id="Ovz-r9pCA3V5yrxFts6w-9" value="" style="shape=partialRectangle;collapsible=0;dropTarget=0;pointerEvents=0;fillColor=none;top=0;left=0;bottom=0;right=0;points=[[0,0.5],[1,0.5]];portConstraint=eastwest;" vertex="1" parent="Ovz-r9pCA3V5yrxFts6w-2">
          <mxGeometry y="120" width="180" height="30" as="geometry" />
        </mxCell>
        <mxCell id="Ovz-r9pCA3V5yrxFts6w-10" value="" style="shape=partialRectangle;connectable=0;fillColor=none;top=0;left=0;bottom=0;right=0;editable=1;overflow=hidden;" vertex="1" parent="Ovz-r9pCA3V5yrxFts6w-9">
          <mxGeometry width="30" height="30" as="geometry" />
        </mxCell>
        <mxCell id="Ovz-r9pCA3V5yrxFts6w-11" value="DeptLocation" style="shape=partialRectangle;connectable=0;fillColor=none;top=0;left=0;bottom=0;right=0;align=left;spacingLeft=6;overflow=hidden;" vertex="1" parent="Ovz-r9pCA3V5yrxFts6w-9">
          <mxGeometry x="30" width="150" height="30" as="geometry" />
        </mxCell>
        <mxCell id="Ovz-r9pCA3V5yrxFts6w-15" value="MANAGER" style="shape=table;startSize=30;container=1;collapsible=1;childLayout=tableLayout;fixedRows=1;rowLines=0;fontStyle=1;align=center;resizeLast=1;fillColor=#f0a30a;strokeColor=#BD7000;fontColor=#000000;" vertex="1" parent="1">
          <mxGeometry x="630" y="340" width="180" height="160" as="geometry" />
        </mxCell>
        <mxCell id="Ovz-r9pCA3V5yrxFts6w-16" value="" style="shape=partialRectangle;collapsible=0;dropTarget=0;pointerEvents=0;fillColor=none;top=0;left=0;bottom=1;right=0;points=[[0,0.5],[1,0.5]];portConstraint=eastwest;" vertex="1" parent="Ovz-r9pCA3V5yrxFts6w-15">
          <mxGeometry y="30" width="180" height="30" as="geometry" />
        </mxCell>
        <mxCell id="Ovz-r9pCA3V5yrxFts6w-17" value="PK" style="shape=partialRectangle;connectable=0;fillColor=none;top=0;left=0;bottom=0;right=0;fontStyle=1;overflow=hidden;" vertex="1" parent="Ovz-r9pCA3V5yrxFts6w-16">
          <mxGeometry width="30" height="30" as="geometry" />
        </mxCell>
        <mxCell id="Ovz-r9pCA3V5yrxFts6w-18" value="MgrID" style="shape=partialRectangle;connectable=0;fillColor=none;top=0;left=0;bottom=0;right=0;align=left;spacingLeft=6;fontStyle=5;overflow=hidden;" vertex="1" parent="Ovz-r9pCA3V5yrxFts6w-16">
          <mxGeometry x="30" width="150" height="30" as="geometry" />
        </mxCell>
        <mxCell id="Ovz-r9pCA3V5yrxFts6w-19" value="" style="shape=partialRectangle;collapsible=0;dropTarget=0;pointerEvents=0;fillColor=none;top=0;left=0;bottom=0;right=0;points=[[0,0.5],[1,0.5]];portConstraint=eastwest;" vertex="1" parent="Ovz-r9pCA3V5yrxFts6w-15">
          <mxGeometry y="60" width="180" height="30" as="geometry" />
        </mxCell>
        <mxCell id="Ovz-r9pCA3V5yrxFts6w-20" value="" style="shape=partialRectangle;connectable=0;fillColor=none;top=0;left=0;bottom=0;right=0;editable=1;overflow=hidden;" vertex="1" parent="Ovz-r9pCA3V5yrxFts6w-19">
          <mxGeometry width="30" height="30" as="geometry" />
        </mxCell>
        <mxCell id="Ovz-r9pCA3V5yrxFts6w-21" value="FirstName" style="shape=partialRectangle;connectable=0;fillColor=none;top=0;left=0;bottom=0;right=0;align=left;spacingLeft=6;overflow=hidden;" vertex="1" parent="Ovz-r9pCA3V5yrxFts6w-19">
          <mxGeometry x="30" width="150" height="30" as="geometry" />
        </mxCell>
        <mxCell id="Ovz-r9pCA3V5yrxFts6w-22" value="" style="shape=partialRectangle;collapsible=0;dropTarget=0;pointerEvents=0;fillColor=none;top=0;left=0;bottom=0;right=0;points=[[0,0.5],[1,0.5]];portConstraint=eastwest;" vertex="1" parent="Ovz-r9pCA3V5yrxFts6w-15">
          <mxGeometry y="90" width="180" height="30" as="geometry" />
        </mxCell>
        <mxCell id="Ovz-r9pCA3V5yrxFts6w-23" value="" style="shape=partialRectangle;connectable=0;fillColor=none;top=0;left=0;bottom=0;right=0;editable=1;overflow=hidden;" vertex="1" parent="Ovz-r9pCA3V5yrxFts6w-22">
          <mxGeometry width="30" height="30" as="geometry" />
        </mxCell>
        <mxCell id="Ovz-r9pCA3V5yrxFts6w-24" value="LastName    " style="shape=partialRectangle;connectable=0;fillColor=none;top=0;left=0;bottom=0;right=0;align=left;spacingLeft=6;overflow=hidden;" vertex="1" parent="Ovz-r9pCA3V5yrxFts6w-22">
          <mxGeometry x="30" width="150" height="30" as="geometry" />
        </mxCell>
        <mxCell id="Ovz-r9pCA3V5yrxFts6w-25" value="" style="shape=partialRectangle;collapsible=0;dropTarget=0;pointerEvents=0;fillColor=none;top=0;left=0;bottom=0;right=0;points=[[0,0.5],[1,0.5]];portConstraint=eastwest;" vertex="1" parent="Ovz-r9pCA3V5yrxFts6w-15">
          <mxGeometry y="120" width="180" height="30" as="geometry" />
        </mxCell>
        <mxCell id="Ovz-r9pCA3V5yrxFts6w-26" value="" style="shape=partialRectangle;connectable=0;fillColor=none;top=0;left=0;bottom=0;right=0;editable=1;overflow=hidden;" vertex="1" parent="Ovz-r9pCA3V5yrxFts6w-25">
          <mxGeometry width="30" height="30" as="geometry" />
        </mxCell>
        <mxCell id="Ovz-r9pCA3V5yrxFts6w-27" value="Email" style="shape=partialRectangle;connectable=0;fillColor=none;top=0;left=0;bottom=0;right=0;align=left;spacingLeft=6;overflow=hidden;" vertex="1" parent="Ovz-r9pCA3V5yrxFts6w-25">
          <mxGeometry x="30" width="150" height="30" as="geometry" />
        </mxCell>
        <mxCell id="Ovz-r9pCA3V5yrxFts6w-28" value="EMPLOYEE" style="shape=table;startSize=30;container=1;collapsible=1;childLayout=tableLayout;fixedRows=1;rowLines=0;fontStyle=1;align=center;resizeLast=1;strokeColor=#001DBC;fontColor=#ffffff;fillColor=#003CB3;" vertex="1" parent="1">
          <mxGeometry x="630" y="20" width="180" height="190" as="geometry" />
        </mxCell>
        <mxCell id="Ovz-r9pCA3V5yrxFts6w-29" value="" style="shape=partialRectangle;collapsible=0;dropTarget=0;pointerEvents=0;fillColor=none;top=0;left=0;bottom=1;right=0;points=[[0,0.5],[1,0.5]];portConstraint=eastwest;" vertex="1" parent="Ovz-r9pCA3V5yrxFts6w-28">
          <mxGeometry y="30" width="180" height="30" as="geometry" />
        </mxCell>
        <mxCell id="Ovz-r9pCA3V5yrxFts6w-30" value="PK" style="shape=partialRectangle;connectable=0;fillColor=none;top=0;left=0;bottom=0;right=0;fontStyle=1;overflow=hidden;" vertex="1" parent="Ovz-r9pCA3V5yrxFts6w-29">
          <mxGeometry width="30" height="30" as="geometry" />
        </mxCell>
        <mxCell id="Ovz-r9pCA3V5yrxFts6w-31" value="EmpID" style="shape=partialRectangle;connectable=0;fillColor=none;top=0;left=0;bottom=0;right=0;align=left;spacingLeft=6;fontStyle=5;overflow=hidden;" vertex="1" parent="Ovz-r9pCA3V5yrxFts6w-29">
          <mxGeometry x="30" width="150" height="30" as="geometry" />
        </mxCell>
        <mxCell id="Ovz-r9pCA3V5yrxFts6w-32" value="" style="shape=partialRectangle;collapsible=0;dropTarget=0;pointerEvents=0;fillColor=none;top=0;left=0;bottom=0;right=0;points=[[0,0.5],[1,0.5]];portConstraint=eastwest;" vertex="1" parent="Ovz-r9pCA3V5yrxFts6w-28">
          <mxGeometry y="60" width="180" height="30" as="geometry" />
        </mxCell>
        <mxCell id="Ovz-r9pCA3V5yrxFts6w-33" value="" style="shape=partialRectangle;connectable=0;fillColor=none;top=0;left=0;bottom=0;right=0;editable=1;overflow=hidden;" vertex="1" parent="Ovz-r9pCA3V5yrxFts6w-32">
          <mxGeometry width="30" height="30" as="geometry" />
        </mxCell>
        <mxCell id="Ovz-r9pCA3V5yrxFts6w-34" value="FirstName    " style="shape=partialRectangle;connectable=0;fillColor=none;top=0;left=0;bottom=0;right=0;align=left;spacingLeft=6;overflow=hidden;" vertex="1" parent="Ovz-r9pCA3V5yrxFts6w-32">
          <mxGeometry x="30" width="150" height="30" as="geometry" />
        </mxCell>
        <mxCell id="Ovz-r9pCA3V5yrxFts6w-35" value="" style="shape=partialRectangle;collapsible=0;dropTarget=0;pointerEvents=0;fillColor=none;top=0;left=0;bottom=0;right=0;points=[[0,0.5],[1,0.5]];portConstraint=eastwest;" vertex="1" parent="Ovz-r9pCA3V5yrxFts6w-28">
          <mxGeometry y="90" width="180" height="30" as="geometry" />
        </mxCell>
        <mxCell id="Ovz-r9pCA3V5yrxFts6w-36" value="" style="shape=partialRectangle;connectable=0;fillColor=none;top=0;left=0;bottom=0;right=0;editable=1;overflow=hidden;" vertex="1" parent="Ovz-r9pCA3V5yrxFts6w-35">
          <mxGeometry width="30" height="30" as="geometry" />
        </mxCell>
        <mxCell id="Ovz-r9pCA3V5yrxFts6w-37" value="LastName" style="shape=partialRectangle;connectable=0;fillColor=none;top=0;left=0;bottom=0;right=0;align=left;spacingLeft=6;overflow=hidden;" vertex="1" parent="Ovz-r9pCA3V5yrxFts6w-35">
          <mxGeometry x="30" width="150" height="30" as="geometry" />
        </mxCell>
        <mxCell id="Ovz-r9pCA3V5yrxFts6w-38" value="" style="shape=partialRectangle;collapsible=0;dropTarget=0;pointerEvents=0;fillColor=none;top=0;left=0;bottom=0;right=0;points=[[0,0.5],[1,0.5]];portConstraint=eastwest;" vertex="1" parent="Ovz-r9pCA3V5yrxFts6w-28">
          <mxGeometry y="120" width="180" height="30" as="geometry" />
        </mxCell>
        <mxCell id="Ovz-r9pCA3V5yrxFts6w-39" value="" style="shape=partialRectangle;connectable=0;fillColor=none;top=0;left=0;bottom=0;right=0;editable=1;overflow=hidden;" vertex="1" parent="Ovz-r9pCA3V5yrxFts6w-38">
          <mxGeometry width="30" height="30" as="geometry" />
        </mxCell>
        <mxCell id="Ovz-r9pCA3V5yrxFts6w-40" value="Email" style="shape=partialRectangle;connectable=0;fillColor=none;top=0;left=0;bottom=0;right=0;align=left;spacingLeft=6;overflow=hidden;" vertex="1" parent="Ovz-r9pCA3V5yrxFts6w-38">
          <mxGeometry x="30" width="150" height="30" as="geometry" />
        </mxCell>
        <mxCell id="Ovz-r9pCA3V5yrxFts6w-101" value="" style="shape=partialRectangle;collapsible=0;dropTarget=0;pointerEvents=0;fillColor=none;top=0;left=0;bottom=0;right=0;points=[[0,0.5],[1,0.5]];portConstraint=eastwest;" vertex="1" parent="Ovz-r9pCA3V5yrxFts6w-28">
          <mxGeometry y="150" width="180" height="30" as="geometry" />
        </mxCell>
        <mxCell id="Ovz-r9pCA3V5yrxFts6w-102" value="FK" style="shape=partialRectangle;connectable=0;fillColor=none;top=0;left=0;bottom=0;right=0;fontStyle=0;overflow=hidden;" vertex="1" parent="Ovz-r9pCA3V5yrxFts6w-101">
          <mxGeometry width="30" height="30" as="geometry" />
        </mxCell>
        <mxCell id="Ovz-r9pCA3V5yrxFts6w-103" value="MgrID" style="shape=partialRectangle;connectable=0;fillColor=none;top=0;left=0;bottom=0;right=0;align=left;spacingLeft=6;fontStyle=0;overflow=hidden;" vertex="1" parent="Ovz-r9pCA3V5yrxFts6w-101">
          <mxGeometry x="30" width="150" height="30" as="geometry" />
        </mxCell>
        <mxCell id="Ovz-r9pCA3V5yrxFts6w-41" value="PROJECT" style="shape=table;startSize=30;container=1;collapsible=1;childLayout=tableLayout;fixedRows=1;rowLines=0;fontStyle=1;align=center;resizeLast=1;fillColor=#e51400;strokeColor=#B20000;fontColor=#ffffff;" vertex="1" parent="1">
          <mxGeometry x="60" y="30" width="180" height="160" as="geometry" />
        </mxCell>
        <mxCell id="Ovz-r9pCA3V5yrxFts6w-42" value="" style="shape=partialRectangle;collapsible=0;dropTarget=0;pointerEvents=0;fillColor=none;top=0;left=0;bottom=1;right=0;points=[[0,0.5],[1,0.5]];portConstraint=eastwest;" vertex="1" parent="Ovz-r9pCA3V5yrxFts6w-41">
          <mxGeometry y="30" width="180" height="30" as="geometry" />
        </mxCell>
        <mxCell id="Ovz-r9pCA3V5yrxFts6w-43" value="PK" style="shape=partialRectangle;connectable=0;fillColor=none;top=0;left=0;bottom=0;right=0;fontStyle=1;overflow=hidden;" vertex="1" parent="Ovz-r9pCA3V5yrxFts6w-42">
          <mxGeometry width="30" height="30" as="geometry" />
        </mxCell>
        <mxCell id="Ovz-r9pCA3V5yrxFts6w-44" value="ProjID" style="shape=partialRectangle;connectable=0;fillColor=none;top=0;left=0;bottom=0;right=0;align=left;spacingLeft=6;fontStyle=5;overflow=hidden;" vertex="1" parent="Ovz-r9pCA3V5yrxFts6w-42">
          <mxGeometry x="30" width="150" height="30" as="geometry" />
        </mxCell>
        <mxCell id="Ovz-r9pCA3V5yrxFts6w-48" value="" style="shape=partialRectangle;collapsible=0;dropTarget=0;pointerEvents=0;fillColor=none;top=0;left=0;bottom=0;right=0;points=[[0,0.5],[1,0.5]];portConstraint=eastwest;" vertex="1" parent="Ovz-r9pCA3V5yrxFts6w-41">
          <mxGeometry y="60" width="180" height="30" as="geometry" />
        </mxCell>
        <mxCell id="Ovz-r9pCA3V5yrxFts6w-49" value="" style="shape=partialRectangle;connectable=0;fillColor=none;top=0;left=0;bottom=0;right=0;editable=1;overflow=hidden;" vertex="1" parent="Ovz-r9pCA3V5yrxFts6w-48">
          <mxGeometry width="30" height="30" as="geometry" />
        </mxCell>
        <mxCell id="Ovz-r9pCA3V5yrxFts6w-50" value="ProjName    " style="shape=partialRectangle;connectable=0;fillColor=none;top=0;left=0;bottom=0;right=0;align=left;spacingLeft=6;overflow=hidden;" vertex="1" parent="Ovz-r9pCA3V5yrxFts6w-48">
          <mxGeometry x="30" width="150" height="30" as="geometry" />
        </mxCell>
        <mxCell id="Ovz-r9pCA3V5yrxFts6w-51" value="" style="shape=partialRectangle;collapsible=0;dropTarget=0;pointerEvents=0;fillColor=none;top=0;left=0;bottom=0;right=0;points=[[0,0.5],[1,0.5]];portConstraint=eastwest;" vertex="1" parent="Ovz-r9pCA3V5yrxFts6w-41">
          <mxGeometry y="90" width="180" height="30" as="geometry" />
        </mxCell>
        <mxCell id="Ovz-r9pCA3V5yrxFts6w-52" value="" style="shape=partialRectangle;connectable=0;fillColor=none;top=0;left=0;bottom=0;right=0;editable=1;overflow=hidden;" vertex="1" parent="Ovz-r9pCA3V5yrxFts6w-51">
          <mxGeometry width="30" height="30" as="geometry" />
        </mxCell>
        <mxCell id="Ovz-r9pCA3V5yrxFts6w-53" value="StartDate" style="shape=partialRectangle;connectable=0;fillColor=none;top=0;left=0;bottom=0;right=0;align=left;spacingLeft=6;overflow=hidden;" vertex="1" parent="Ovz-r9pCA3V5yrxFts6w-51">
          <mxGeometry x="30" width="150" height="30" as="geometry" />
        </mxCell>
        <mxCell id="Ovz-r9pCA3V5yrxFts6w-67" style="shape=partialRectangle;collapsible=0;dropTarget=0;pointerEvents=0;fillColor=none;top=0;left=0;bottom=0;right=0;points=[[0,0.5],[1,0.5]];portConstraint=eastwest;" vertex="1" parent="Ovz-r9pCA3V5yrxFts6w-41">
          <mxGeometry y="120" width="180" height="30" as="geometry" />
        </mxCell>
        <mxCell id="Ovz-r9pCA3V5yrxFts6w-68" style="shape=partialRectangle;connectable=0;fillColor=none;top=0;left=0;bottom=0;right=0;editable=1;overflow=hidden;" vertex="1" parent="Ovz-r9pCA3V5yrxFts6w-67">
          <mxGeometry width="30" height="30" as="geometry" />
        </mxCell>
        <mxCell id="Ovz-r9pCA3V5yrxFts6w-69" value="EndDate" style="shape=partialRectangle;connectable=0;fillColor=none;top=0;left=0;bottom=0;right=0;align=left;spacingLeft=6;overflow=hidden;" vertex="1" parent="Ovz-r9pCA3V5yrxFts6w-67">
          <mxGeometry x="30" width="150" height="30" as="geometry" />
        </mxCell>
        <mxCell id="Ovz-r9pCA3V5yrxFts6w-54" value="TASK" style="shape=table;startSize=30;container=1;collapsible=1;childLayout=tableLayout;fixedRows=1;rowLines=0;fontStyle=1;align=center;resizeLast=1;fillColor=#fa6800;strokeColor=#C73500;fontColor=#000000;" vertex="1" parent="1">
          <mxGeometry x="60" y="345" width="180" height="150" as="geometry" />
        </mxCell>
        <mxCell id="Ovz-r9pCA3V5yrxFts6w-55" value="" style="shape=partialRectangle;collapsible=0;dropTarget=0;pointerEvents=0;fillColor=none;top=0;left=0;bottom=1;right=0;points=[[0,0.5],[1,0.5]];portConstraint=eastwest;" vertex="1" parent="Ovz-r9pCA3V5yrxFts6w-54">
          <mxGeometry y="30" width="180" height="30" as="geometry" />
        </mxCell>
        <mxCell id="Ovz-r9pCA3V5yrxFts6w-56" value="PK" style="shape=partialRectangle;connectable=0;fillColor=none;top=0;left=0;bottom=0;right=0;fontStyle=1;overflow=hidden;" vertex="1" parent="Ovz-r9pCA3V5yrxFts6w-55">
          <mxGeometry width="30" height="30" as="geometry" />
        </mxCell>
        <mxCell id="Ovz-r9pCA3V5yrxFts6w-57" value="TaskID" style="shape=partialRectangle;connectable=0;fillColor=none;top=0;left=0;bottom=0;right=0;align=left;spacingLeft=6;fontStyle=5;overflow=hidden;" vertex="1" parent="Ovz-r9pCA3V5yrxFts6w-55">
          <mxGeometry x="30" width="150" height="30" as="geometry" />
        </mxCell>
        <mxCell id="Ovz-r9pCA3V5yrxFts6w-58" value="" style="shape=partialRectangle;collapsible=0;dropTarget=0;pointerEvents=0;fillColor=none;top=0;left=0;bottom=0;right=0;points=[[0,0.5],[1,0.5]];portConstraint=eastwest;" vertex="1" parent="Ovz-r9pCA3V5yrxFts6w-54">
          <mxGeometry y="60" width="180" height="20" as="geometry" />
        </mxCell>
        <mxCell id="Ovz-r9pCA3V5yrxFts6w-59" value="" style="shape=partialRectangle;connectable=0;fillColor=none;top=0;left=0;bottom=0;right=0;editable=1;overflow=hidden;" vertex="1" parent="Ovz-r9pCA3V5yrxFts6w-58">
          <mxGeometry width="30" height="20" as="geometry" />
        </mxCell>
        <mxCell id="Ovz-r9pCA3V5yrxFts6w-60" value="Description" style="shape=partialRectangle;connectable=0;fillColor=none;top=0;left=0;bottom=0;right=0;align=left;spacingLeft=6;overflow=hidden;" vertex="1" parent="Ovz-r9pCA3V5yrxFts6w-58">
          <mxGeometry x="30" width="150" height="20" as="geometry" />
        </mxCell>
        <mxCell id="Ovz-r9pCA3V5yrxFts6w-61" value="" style="shape=partialRectangle;collapsible=0;dropTarget=0;pointerEvents=0;fillColor=none;top=0;left=0;bottom=0;right=0;points=[[0,0.5],[1,0.5]];portConstraint=eastwest;" vertex="1" parent="Ovz-r9pCA3V5yrxFts6w-54">
          <mxGeometry y="80" width="180" height="30" as="geometry" />
        </mxCell>
        <mxCell id="Ovz-r9pCA3V5yrxFts6w-62" value="" style="shape=partialRectangle;connectable=0;fillColor=none;top=0;left=0;bottom=0;right=0;editable=1;overflow=hidden;" vertex="1" parent="Ovz-r9pCA3V5yrxFts6w-61">
          <mxGeometry width="30" height="30" as="geometry" />
        </mxCell>
        <mxCell id="Ovz-r9pCA3V5yrxFts6w-63" value="Status" style="shape=partialRectangle;connectable=0;fillColor=none;top=0;left=0;bottom=0;right=0;align=left;spacingLeft=6;overflow=hidden;" vertex="1" parent="Ovz-r9pCA3V5yrxFts6w-61">
          <mxGeometry x="30" width="150" height="30" as="geometry" />
        </mxCell>
        <mxCell id="Ovz-r9pCA3V5yrxFts6w-104" value="" style="shape=partialRectangle;collapsible=0;dropTarget=0;pointerEvents=0;fillColor=none;top=0;left=0;bottom=0;right=0;points=[[0,0.5],[1,0.5]];portConstraint=eastwest;" vertex="1" parent="Ovz-r9pCA3V5yrxFts6w-54">
          <mxGeometry y="110" width="180" height="30" as="geometry" />
        </mxCell>
        <mxCell id="Ovz-r9pCA3V5yrxFts6w-105" value="FK" style="shape=partialRectangle;connectable=0;fillColor=none;top=0;left=0;bottom=0;right=0;fontStyle=0;overflow=hidden;" vertex="1" parent="Ovz-r9pCA3V5yrxFts6w-104">
          <mxGeometry width="30" height="30" as="geometry" />
        </mxCell>
        <mxCell id="Ovz-r9pCA3V5yrxFts6w-106" value="ProjID" style="shape=partialRectangle;connectable=0;fillColor=none;top=0;left=0;bottom=0;right=0;align=left;spacingLeft=6;fontStyle=0;overflow=hidden;" vertex="1" parent="Ovz-r9pCA3V5yrxFts6w-104">
          <mxGeometry x="30" width="150" height="30" as="geometry" />
        </mxCell>
        <mxCell id="Ovz-r9pCA3V5yrxFts6w-79" value="" style="endArrow=ERzeroToOne;html=1;rounded=0;startArrow=ERmandOne;startFill=0;endFill=1;exitX=1;exitY=0.5;exitDx=0;exitDy=0;" edge="1" parent="1" source="Ovz-r9pCA3V5yrxFts6w-6" target="Ovz-r9pCA3V5yrxFts6w-15">
          <mxGeometry relative="1" as="geometry">
            <mxPoint x="160" y="290" as="sourcePoint" />
            <mxPoint x="290" y="310" as="targetPoint" />
          </mxGeometry>
        </mxCell>
        <mxCell id="Ovz-r9pCA3V5yrxFts6w-80" value="" style="endArrow=ERzeroToMany;html=1;rounded=0;entryX=0.5;entryY=1;entryDx=0;entryDy=0;exitX=0.5;exitY=0;exitDx=0;exitDy=0;startArrow=ERmandOne;startFill=0;endFill=1;" edge="1" parent="1" source="Ovz-r9pCA3V5yrxFts6w-15" target="Ovz-r9pCA3V5yrxFts6w-28">
          <mxGeometry relative="1" as="geometry">
            <mxPoint x="270" y="420" as="sourcePoint" />
            <mxPoint x="559" y="502" as="targetPoint" />
          </mxGeometry>
        </mxCell>
        <mxCell id="Ovz-r9pCA3V5yrxFts6w-81" value="EMP_PROJECT" style="shape=table;startSize=30;container=1;collapsible=1;childLayout=tableLayout;fixedRows=1;rowLines=0;fontStyle=1;align=center;resizeLast=1;strokeColor=#432D57;fontColor=#ffffff;fillColor=#6200C4;" vertex="1" parent="1">
          <mxGeometry x="335" y="65" width="180" height="100" as="geometry" />
        </mxCell>
        <mxCell id="Ovz-r9pCA3V5yrxFts6w-82" value="" style="shape=partialRectangle;collapsible=0;dropTarget=0;pointerEvents=0;fillColor=none;top=0;left=0;bottom=0;right=0;points=[[0,0.5],[1,0.5]];portConstraint=eastwest;" vertex="1" parent="Ovz-r9pCA3V5yrxFts6w-81">
          <mxGeometry y="30" width="180" height="30" as="geometry" />
        </mxCell>
        <mxCell id="Ovz-r9pCA3V5yrxFts6w-83" value="PK,FK1" style="shape=partialRectangle;connectable=0;fillColor=none;top=0;left=0;bottom=0;right=0;fontStyle=1;overflow=hidden;" vertex="1" parent="Ovz-r9pCA3V5yrxFts6w-82">
          <mxGeometry width="60" height="30" as="geometry" />
        </mxCell>
        <mxCell id="Ovz-r9pCA3V5yrxFts6w-84" value="ProjID" style="shape=partialRectangle;connectable=0;fillColor=none;top=0;left=0;bottom=0;right=0;align=left;spacingLeft=6;fontStyle=5;overflow=hidden;" vertex="1" parent="Ovz-r9pCA3V5yrxFts6w-82">
          <mxGeometry x="60" width="120" height="30" as="geometry" />
        </mxCell>
        <mxCell id="Ovz-r9pCA3V5yrxFts6w-85" value="" style="shape=partialRectangle;collapsible=0;dropTarget=0;pointerEvents=0;fillColor=none;top=0;left=0;bottom=1;right=0;points=[[0,0.5],[1,0.5]];portConstraint=eastwest;" vertex="1" parent="Ovz-r9pCA3V5yrxFts6w-81">
          <mxGeometry y="60" width="180" height="30" as="geometry" />
        </mxCell>
        <mxCell id="Ovz-r9pCA3V5yrxFts6w-86" value="PK,FK2" style="shape=partialRectangle;connectable=0;fillColor=none;top=0;left=0;bottom=0;right=0;fontStyle=1;overflow=hidden;" vertex="1" parent="Ovz-r9pCA3V5yrxFts6w-85">
          <mxGeometry width="60" height="30" as="geometry" />
        </mxCell>
        <mxCell id="Ovz-r9pCA3V5yrxFts6w-87" value="EmpID" style="shape=partialRectangle;connectable=0;fillColor=none;top=0;left=0;bottom=0;right=0;align=left;spacingLeft=6;fontStyle=5;overflow=hidden;" vertex="1" parent="Ovz-r9pCA3V5yrxFts6w-85">
          <mxGeometry x="60" width="120" height="30" as="geometry" />
        </mxCell>
        <mxCell id="Ovz-r9pCA3V5yrxFts6w-94" value="" style="endArrow=ERzeroToMany;html=1;rounded=0;startArrow=ERmandOne;startFill=0;endFill=1;entryX=-0.01;entryY=-0.067;entryDx=0;entryDy=0;entryPerimeter=0;" edge="1" parent="1" target="Ovz-r9pCA3V5yrxFts6w-85">
          <mxGeometry relative="1" as="geometry">
            <mxPoint x="241" y="123" as="sourcePoint" />
            <mxPoint x="320" y="123" as="targetPoint" />
          </mxGeometry>
        </mxCell>
        <mxCell id="Ovz-r9pCA3V5yrxFts6w-96" value="" style="endArrow=ERmandOne;html=1;rounded=0;exitX=1.003;exitY=0.827;exitDx=0;exitDy=0;startArrow=ERzeroToMany;startFill=1;endFill=0;exitPerimeter=0;entryX=-0.004;entryY=0.3;entryDx=0;entryDy=0;entryPerimeter=0;" edge="1" parent="1" source="Ovz-r9pCA3V5yrxFts6w-82" target="Ovz-r9pCA3V5yrxFts6w-35">
          <mxGeometry relative="1" as="geometry">
            <mxPoint x="580" y="370" as="sourcePoint" />
            <mxPoint x="740" y="370" as="targetPoint" />
          </mxGeometry>
        </mxCell>
        <mxCell id="Ovz-r9pCA3V5yrxFts6w-97" value="" style="endArrow=ERmandOne;html=1;rounded=0;entryX=0.5;entryY=1;entryDx=0;entryDy=0;exitX=0.5;exitY=0;exitDx=0;exitDy=0;startArrow=ERzeroToMany;startFill=1;endFill=0;" edge="1" parent="1" source="Ovz-r9pCA3V5yrxFts6w-54" target="Ovz-r9pCA3V5yrxFts6w-41">
          <mxGeometry relative="1" as="geometry">
            <mxPoint x="450" y="95" as="sourcePoint" />
            <mxPoint x="560" y="80" as="targetPoint" />
            <Array as="points" />
          </mxGeometry>
        </mxCell>
      </root>
    </mxGraphModel>
  </diagram>
</mxfile>
